<svg xmlns="http://www.w3.org/2000/svg" xmlns:xlink="http://www.w3.org/1999/xlink" width="2127pt" height="2162pt" viewBox="0.00 0.00 2126.74 2161.60">
<g id="graph0" class="graph" transform="scale(1 1) rotate(0) translate(72 2089.6)">
<title>LiveDocs_Professional</title>
<polygon fill="#09111f" stroke="none" points="-72,72 -72,-2089.6 2054.74,-2089.6 2054.74,72 -72,72"/>
<text text-anchor="middle" x="991.37" y="-11.2" font-family="Inter, Arial, sans-serif" font-size="24.00" fill="#ffffff">LiveDocs Application Flow and Architecture</text>
<g id="clust1" class="cluster">
<title>cluster_auth</title>
<path fill="#09111f" stroke="#417bff" stroke-width="2" stroke-dasharray="5,2" d="M725,-1450.8C725,-1450.8 1078,-1450.8 1078,-1450.8 1084,-1450.8 1090,-1456.8 1090,-1462.8 1090,-1462.8 1090,-1997.6 1090,-1997.6 1090,-2003.6 1084,-2009.6 1078,-2009.6 1078,-2009.6 725,-2009.6 725,-2009.6 719,-2009.6 713,-2003.6 713,-1997.6 713,-1997.6 713,-1462.8 713,-1462.8 713,-1456.8 719,-1450.8 725,-1450.8"/>
<text text-anchor="middle" x="901.5" y="-1984" font-family="Inter, Arial, sans-serif" font-size="24.00" fill="#ffffff">User Authentication</text>
</g>
<g id="clust2" class="cluster">
<title>cluster_documents</title>
<path fill="#09111f" stroke="#417bff" stroke-width="2" stroke-dasharray="5,2" d="M877,-1121C877,-1121 1203,-1121 1203,-1121 1209,-1121 1215,-1127 1215,-1133 1215,-1133 1215,-1379 1215,-1379 1215,-1385 1209,-1391 1203,-1391 1203,-1391 877,-1391 877,-1391 871,-1391 865,-1385 865,-1379 865,-1379 865,-1133 865,-1133 865,-1127 871,-1121 877,-1121"/>
<text text-anchor="middle" x="1040" y="-1365.4" font-family="Inter, Arial, sans-serif" font-size="24.00" fill="#ffffff">Document Management</text>
</g>
<g id="clust3" class="cluster">
<title>cluster_collaboration</title>
<path fill="#09111f" stroke="#417bff" stroke-width="2" stroke-dasharray="5,2" d="M853,-678.4C853,-678.4 1051,-678.4 1051,-678.4 1057,-678.4 1063,-684.4 1063,-690.4 1063,-690.4 1063,-1065 1063,-1065 1063,-1071 1057,-1077 1051,-1077 1051,-1077 853,-1077 853,-1077 847,-1077 841,-1071 841,-1065 841,-1065 841,-690.4 841,-690.4 841,-684.4 847,-678.4 853,-678.4"/>
<text text-anchor="middle" x="952" y="-1051.4" font-family="Inter, Arial, sans-serif" font-size="24.00" fill="#ffffff">Collaborative Room</text>
</g>
<g id="clust4" class="cluster">
<title>cluster_editor_features</title>
<path fill="#09111f" stroke="#417bff" stroke-width="2" stroke-dasharray="5,2" d="M635,-487.4C635,-487.4 1757,-487.4 1757,-487.4 1763,-487.4 1769,-493.4 1769,-499.4 1769,-499.4 1769,-606.6 1769,-606.6 1769,-612.6 1763,-618.6 1757,-618.6 1757,-618.6 635,-618.6 635,-618.6 629,-618.6 623,-612.6 623,-606.6 623,-606.6 623,-499.4 623,-499.4 623,-493.4 629,-487.4 635,-487.4"/>
<text text-anchor="middle" x="1196" y="-593" font-family="Inter, Arial, sans-serif" font-size="24.00" fill="#ffffff">Editor &amp; Collaboration Features</text>
</g>
<g id="clust5" class="cluster">
<title>cluster_backend</title>
<path fill="#09111f" stroke="#417bff" stroke-width="2" stroke-dasharray="5,2" d="M20,-214.4C20,-214.4 327,-214.4 327,-214.4 333,-214.4 339,-220.4 339,-226.4 339,-226.4 339,-606.6 339,-606.6 339,-612.6 333,-618.6 327,-618.6 327,-618.6 20,-618.6 20,-618.6 14,-618.6 8,-612.6 8,-606.6 8,-606.6 8,-226.4 8,-226.4 8,-220.4 14,-214.4 20,-214.4"/>
<text text-anchor="middle" x="173.5" y="-593" font-family="Inter, Arial, sans-serif" font-size="24.00" fill="#ffffff">Backend &amp; API</text>
</g>
<g id="clust7" class="cluster">
<title>cluster_external</title>
<path fill="#09111f" stroke="#417bff" stroke-width="2" stroke-dasharray="5,2" d="M57,-44.8C57,-44.8 549,-44.8 549,-44.8 555,-44.8 561,-50.8 561,-56.8 561,-56.8 561,-158.4 561,-158.4 561,-164.4 555,-170.4 549,-170.4 549,-170.4 57,-170.4 57,-170.4 51,-170.4 45,-164.4 45,-158.4 45,-158.4 45,-56.8 45,-56.8 45,-50.8 51,-44.8 57,-44.8"/>
<text text-anchor="middle" x="303" y="-144.8" font-family="Inter, Arial, sans-serif" font-size="24.00" fill="#ffffff">External Services</text>
</g>
<!-- start -->
<g id="node1" class="node">
<title>start</title>
<ellipse fill="#3371ff" stroke="#b4c6ee" stroke-width="1.5" cx="859" cy="-1910" rx="92.04" ry="18"/>
<text text-anchor="middle" x="859" y="-1905.8" font-family="Inter, Arial, sans-serif" font-size="14.00" fill="#ffffff">User visits LiveDocs</text>
</g>
<!-- clerk_middleware -->
<g id="node3" class="node">
<title>clerk_middleware</title>
<path fill="#0f1c34" stroke="#b4c6ee" stroke-width="1.5" d="M906.12,-1789.2C906.12,-1789.2 811.88,-1789.2 811.88,-1789.2 805.88,-1789.2 799.88,-1783.2 799.88,-1777.2 799.88,-1777.2 799.88,-1759.6 799.88,-1759.6 799.88,-1753.6 805.88,-1747.6 811.88,-1747.6 811.88,-1747.6 906.12,-1747.6 906.12,-1747.6 912.12,-1747.6 918.12,-1753.6 918.12,-1759.6 918.12,-1759.6 918.12,-1777.2 918.12,-1777.2 918.12,-1783.2 912.12,-1789.2 906.12,-1789.2"/>
<text text-anchor="middle" x="859" y="-1772.6" font-family="Inter, Arial, sans-serif" font-size="14.00" fill="#ffffff">Clerk Middleware</text>
<text text-anchor="middle" x="859" y="-1755.8" font-family="Inter, Arial, sans-serif" font-size="14.00" fill="#ffffff">(middleware.ts)</text>
</g>
<!-- start&#45;&gt;clerk_middleware -->
<g id="edge1" class="edge">
<title>start-&gt;clerk_middleware</title>
<path fill="none" stroke="#b4c6ee" stroke-width="1.5" d="M859,-1891.78C859,-1891.78 859,-1803.58 859,-1803.58"/>
<polygon fill="#b4c6ee" stroke="#b4c6ee" stroke-width="1.5" points="863.2,-1803.58 859,-1791.58 854.8,-1803.58 863.2,-1803.58"/>
<text text-anchor="middle" x="900.8" y="-1836.4" font-family="Inter, Arial, sans-serif" font-size="14.00" fill="#b4c6ee">HTTP Request</text>
</g>
<!-- clerk_ui -->
<g id="node2" class="node">
<title>clerk_ui</title>
<path fill="#0f1c34" stroke="#b4c6ee" stroke-width="1.5" d="M874.67,-1644.8C874.67,-1644.8 733.33,-1644.8 733.33,-1644.8 727.33,-1644.8 721.33,-1638.8 721.33,-1632.8 721.33,-1632.8 721.33,-1615.2 721.33,-1615.2 721.33,-1609.2 727.33,-1603.2 733.33,-1603.2 733.33,-1603.2 874.67,-1603.2 874.67,-1603.2 880.67,-1603.2 886.67,-1609.2 886.67,-1615.2 886.67,-1615.2 886.67,-1632.8 886.67,-1632.8 886.67,-1638.8 880.67,-1644.8 874.67,-1644.8"/>
<text text-anchor="middle" x="804" y="-1628.2" font-family="Inter, Arial, sans-serif" font-size="14.00" fill="#ffffff">Clerk Sign-in / Sign-up UI</text>
<text text-anchor="middle" x="804" y="-1611.4" font-family="Inter, Arial, sans-serif" font-size="14.00" fill="#ffffff">(app/(auth)/...)</text>
</g>
<!-- dashboard -->
<g id="node4" class="node">
<title>dashboard</title>
<path fill="#0f1c34" stroke="#b4c6ee" stroke-width="1.5" d="M968.23,-1500.4C968.23,-1500.4 839.77,-1500.4 839.77,-1500.4 833.77,-1500.4 827.77,-1494.4 827.77,-1488.4 827.77,-1488.4 827.77,-1470.8 827.77,-1470.8 827.77,-1464.8 833.77,-1458.8 839.77,-1458.8 839.77,-1458.8 968.23,-1458.8 968.23,-1458.8 974.23,-1458.8 980.23,-1464.8 980.23,-1470.8 980.23,-1470.8 980.23,-1488.4 980.23,-1488.4 980.23,-1494.4 974.23,-1500.4 968.23,-1500.4"/>
<text text-anchor="middle" x="904" y="-1483.8" font-family="Inter, Arial, sans-serif" font-size="14.00" fill="#ffffff">Dashboard / Home Page</text>
<text text-anchor="middle" x="904" y="-1467" font-family="Inter, Arial, sans-serif" font-size="14.00" fill="#ffffff">(app/(root)/page.tsx)</text>
</g>
<!-- clerk_ui&#45;&gt;dashboard -->
<g id="edge3" class="edge">
<title>clerk_ui-&gt;dashboard</title>
<path fill="none" stroke="#b4c6ee" stroke-width="1.5" d="M857.22,-1603C857.22,-1603 857.22,-1514.89 857.22,-1514.89"/>
<polygon fill="#b4c6ee" stroke="#b4c6ee" stroke-width="1.5" points="861.42,-1514.89 857.22,-1502.89 853.02,-1514.89 861.42,-1514.89"/>
<text text-anchor="middle" x="900.51" y="-1547.6" font-family="Inter, Arial, sans-serif" font-size="14.00" fill="#b4c6ee">Authentication Success</text>
</g>
<!-- clerk_middleware&#45;&gt;clerk_ui -->
<g id="edge2" class="edge">
<title>clerk_middleware-&gt;clerk_ui</title>
<path fill="none" stroke="#b4c6ee" stroke-width="1.5" d="M843.27,-1747.4C843.27,-1747.4 843.27,-1659.29 843.27,-1659.29"/>
<polygon fill="#b4c6ee" stroke="#b4c6ee" stroke-width="1.5" points="847.47,-1659.29 843.27,-1647.29 839.07,-1659.29 847.47,-1659.29"/>
<text text-anchor="middle" x="877.87" y="-1692" font-family="Inter, Arial, sans-serif" font-size="14.00" fill="#b4c6ee">Unauthenticated</text>
</g>
<!-- clerk_middleware&#45;&gt;dashboard -->
<g id="edge4" class="edge">
<title>clerk_middleware-&gt;dashboard</title>
<path fill="none" stroke="#b4c6ee" stroke-width="1.5" d="M902.39,-1747.16C902.39,-1747.16 902.39,-1515.14 902.39,-1515.14"/>
<polygon fill="#b4c6ee" stroke="#b4c6ee" stroke-width="1.5" points="906.59,-1515.14 902.39,-1503.14 898.19,-1515.14 906.59,-1515.14"/>
<text text-anchor="middle" x="1042.26" y="-1619.8" font-family="Inter, Arial, sans-serif" font-size="14.00" fill="#b4c6ee">Authenticated</text>
</g>
<!-- sentry_monitoring -->
<g id="node20" class="node">
<title>sentry_monitoring</title>
<path fill="#0f1c34" stroke="#b4c6ee" stroke-width="1.5" d="M274.43,-264C274.43,-264 145.57,-264 145.57,-264 139.57,-264 133.57,-258 133.57,-252 133.57,-252 133.57,-234.4 133.57,-234.4 133.57,-228.4 139.57,-222.4 145.57,-222.4 145.57,-222.4 274.43,-222.4 274.43,-222.4 280.43,-222.4 286.43,-228.4 286.43,-234.4 286.43,-234.4 286.43,-252 286.43,-252 286.43,-258 280.43,-264 274.43,-264"/>
<text text-anchor="middle" x="210" y="-247.4" font-family="Inter, Arial, sans-serif" font-size="14.00" fill="#ffffff">Sentry Error Monitoring</text>
<text text-anchor="middle" x="210" y="-230.6" font-family="Inter, Arial, sans-serif" font-size="14.00" fill="#ffffff">(sentry.*.config.ts)</text>
</g>
<!-- clerk_middleware&#45;&gt;sentry_monitoring -->
<g id="edge25" class="edge">
<title>clerk_middleware-&gt;sentry_monitoring</title>
<path fill="none" stroke="#dd4f56" stroke-dasharray="5,2" d="M799.51,-1775.33C632.53,-1775.33 171.67,-1775.33 171.67,-1775.33 171.67,-1775.33 171.67,-277.79 171.67,-277.79"/>
<polygon fill="#dd4f56" stroke="#dd4f56" points="175.87,-277.79 171.67,-265.79 167.47,-277.79 175.87,-277.79"/>
</g>
<!-- clerk_service -->
<g id="node21" class="node">
<title>clerk_service</title>
<path fill="#6c47ff" stroke="#b4c6ee" stroke-width="1.5" d="M553,-85.53C553,-87.33 540.9,-88.8 526,-88.8 511.1,-88.8 499,-87.33 499,-85.53 499,-85.53 499,-56.07 499,-56.07 499,-54.27 511.1,-52.8 526,-52.8 540.9,-52.8 553,-54.27 553,-56.07 553,-56.07 553,-85.53 553,-85.53"/>
<path fill="none" stroke="#b4c6ee" stroke-width="1.5" d="M553,-85.53C553,-83.72 540.9,-82.25 526,-82.25 511.1,-82.25 499,-83.72 499,-85.53"/>
<text text-anchor="middle" x="526" y="-66.6" font-family="Inter, Arial, sans-serif" font-size="14.00" fill="#ffffff">Clerk</text>
</g>
<!-- clerk_middleware&#45;&gt;clerk_service -->
<g id="edge29" class="edge">
<title>clerk_middleware-&gt;clerk_service</title>
<path fill="none" stroke="#b4c6ee" stroke-width="1.5" d="M799.43,-1761.47C700.37,-1761.47 512.5,-1761.47 512.5,-1761.47 512.5,-1761.47 512.5,-103.48 512.5,-103.48"/>
<polygon fill="#b4c6ee" stroke="#b4c6ee" stroke-width="1.5" points="516.7,-103.48 512.5,-91.48 508.3,-103.48 516.7,-103.48"/>
</g>
<!-- get_documents -->
<g id="node5" class="node">
<title>get_documents</title>
<path fill="#0f1c34" stroke="#b4c6ee" stroke-width="1.5" d="M1195.38,-1309.4C1195.38,-1309.4 1090.62,-1309.4 1090.62,-1309.4 1084.62,-1309.4 1078.62,-1303.4 1078.62,-1297.4 1078.62,-1297.4 1078.62,-1279.8 1078.62,-1279.8 1078.62,-1273.8 1084.62,-1267.8 1090.62,-1267.8 1090.62,-1267.8 1195.38,-1267.8 1195.38,-1267.8 1201.38,-1267.8 1207.38,-1273.8 1207.38,-1279.8 1207.38,-1279.8 1207.38,-1297.4 1207.38,-1297.4 1207.38,-1303.4 1201.38,-1309.4 1195.38,-1309.4"/>
<text text-anchor="middle" x="1143" y="-1292.8" font-family="Inter, Arial, sans-serif" font-size="14.00" fill="#ffffff">Get Documents List</text>
<text text-anchor="middle" x="1143" y="-1276" font-family="Inter, Arial, sans-serif" font-size="14.00" fill="#ffffff">(room.actions.ts)</text>
</g>
<!-- dashboard&#45;&gt;get_documents -->
<g id="edge5" class="edge">
<title>dashboard-&gt;get_documents</title>
<path fill="none" stroke="#b4c6ee" stroke-width="1.5" d="M980.7,-1472.67C1043.33,-1472.67 1121.54,-1472.67 1121.54,-1472.67 1121.54,-1472.67 1121.54,-1323.99 1121.54,-1323.99"/>
<polygon fill="#b4c6ee" stroke="#b4c6ee" stroke-width="1.5" points="1125.74,-1323.99 1121.54,-1311.99 1117.34,-1323.99 1125.74,-1323.99"/>
</g>
<!-- create_document -->
<g id="node6" class="node">
<title>create_document</title>
<path fill="#0f1c34" stroke="#b4c6ee" stroke-width="1.5" d="M1008.91,-1309.4C1008.91,-1309.4 885.09,-1309.4 885.09,-1309.4 879.09,-1309.4 873.09,-1303.4 873.09,-1297.4 873.09,-1297.4 873.09,-1279.8 873.09,-1279.8 873.09,-1273.8 879.09,-1267.8 885.09,-1267.8 885.09,-1267.8 1008.91,-1267.8 1008.91,-1267.8 1014.91,-1267.8 1020.91,-1273.8 1020.91,-1279.8 1020.91,-1279.8 1020.91,-1297.4 1020.91,-1297.4 1020.91,-1303.4 1014.91,-1309.4 1008.91,-1309.4"/>
<text text-anchor="middle" x="947" y="-1292.8" font-family="Inter, Arial, sans-serif" font-size="14.00" fill="#ffffff">Create New Document</text>
<text text-anchor="middle" x="947" y="-1276" font-family="Inter, Arial, sans-serif" font-size="14.00" fill="#ffffff">(AddDocumentBtn.tsx)</text>
</g>
<!-- dashboard&#45;&gt;create_document -->
<g id="edge6" class="edge">
<title>dashboard-&gt;create_document</title>
<path fill="none" stroke="#b4c6ee" stroke-width="1.5" d="M926.66,-1458.43C926.66,-1458.43 926.66,-1324.14 926.66,-1324.14"/>
<polygon fill="#b4c6ee" stroke="#b4c6ee" stroke-width="1.5" points="930.86,-1324.14 926.66,-1312.14 922.46,-1324.14 930.86,-1324.14"/>
</g>
<!-- open_document -->
<g id="node7" class="node">
<title>open_document</title>
<path fill="#0f1c34" stroke="#b4c6ee" stroke-width="1.5" d="M1019.16,-1165C1019.16,-1165 884.84,-1165 884.84,-1165 878.84,-1165 872.84,-1159 872.84,-1153 872.84,-1153 872.84,-1141 872.84,-1141 872.84,-1135 878.84,-1129 884.84,-1129 884.84,-1129 1019.16,-1129 1019.16,-1129 1025.16,-1129 1031.16,-1135 1031.16,-1141 1031.16,-1141 1031.16,-1153 1031.16,-1153 1031.16,-1159 1025.16,-1165 1019.16,-1165"/>
<text text-anchor="middle" x="952" y="-1142.8" font-family="Inter, Arial, sans-serif" font-size="14.00" fill="#ffffff">Open Existing Document</text>
</g>
<!-- dashboard&#45;&gt;open_document -->
<g id="edge8" class="edge">
<title>dashboard-&gt;open_document</title>
<path fill="none" stroke="#b4c6ee" stroke-width="1.5" d="M863.61,-1458.54C863.61,-1385.43 863.61,-1147 863.61,-1147 863.61,-1147 864.49,-1147 864.49,-1147"/>
<polygon fill="#b4c6ee" stroke="#b4c6ee" stroke-width="1.5" points="858.14,-1151.2 870.14,-1147 858.14,-1142.8 858.14,-1151.2"/>
<text text-anchor="middle" x="746.84" y="-1284.4" font-family="Inter, Arial, sans-serif" font-size="14.00" fill="#b4c6ee">User selects a document</text>
</g>
<!-- dashboard&#45;&gt;sentry_monitoring -->
<g id="edge26" class="edge">
<title>dashboard-&gt;sentry_monitoring</title>
<path fill="none" stroke="#dd4f56" stroke-dasharray="5,2" d="M831.31,-1458.4C831.31,-1295.07 831.31,-243.2 831.31,-243.2 831.31,-243.2 831.31,-256.71 831.31,-256.71"/>
<polygon fill="#dd4f56" stroke="#dd4f56" points="300.42,-239.34 288.32,-243.24 300.21,-247.73 300.42,-239.34"/>
</g>
<!-- get_documents&#45;&gt;dashboard -->
<g id="edge7" class="edge">
<title>get_documents-&gt;dashboard</title>
<path fill="none" stroke="#b4c6ee" stroke-width="1.5" d="M1164.46,-1309.78C1164.46,-1360.84 1164.46,-1486.53 1164.46,-1486.53 1164.46,-1486.53 994.66,-1486.53 994.66,-1486.53"/>
<polygon fill="#b4c6ee" stroke="#b4c6ee" stroke-width="1.5" points="994.66,-1482.33 982.66,-1486.53 994.66,-1490.73 994.66,-1482.33"/>
<text text-anchor="middle" x="1052.41" y="-1403.2" font-family="Inter, Arial, sans-serif" font-size="14.00" fill="#b4c6ee">Display Documents</text>
</g>
<!-- create_document&#45;&gt;open_document -->
<g id="edge9" class="edge">
<title>create_document-&gt;open_document</title>
<path fill="none" stroke="#b4c6ee" stroke-width="1.5" d="M947,-1267.4C947,-1267.4 947,-1179.46 947,-1179.46"/>
<polygon fill="#b4c6ee" stroke="#b4c6ee" stroke-width="1.5" points="951.2,-1179.46 947,-1167.46 942.8,-1179.46 951.2,-1179.46"/>
<text text-anchor="middle" x="1009.68" y="-1212.2" font-family="Inter, Arial, sans-serif" font-size="14.00" fill="#b4c6ee">On Success, Redirect</text>
</g>
<!-- server_actions -->
<g id="node19" class="node">
<title>server_actions</title>
<path fill="#0f1c34" stroke="#b4c6ee" stroke-width="1.5" d="M318.79,-392.6C318.79,-392.6 243.21,-392.6 243.21,-392.6 237.21,-392.6 231.21,-386.6 231.21,-380.6 231.21,-380.6 231.21,-363 231.21,-363 231.21,-357 237.21,-351 243.21,-351 243.21,-351 318.79,-351 318.79,-351 324.79,-351 330.79,-357 330.79,-363 330.79,-363 330.79,-380.6 330.79,-380.6 330.79,-386.6 324.79,-392.6 318.79,-392.6"/>
<text text-anchor="middle" x="281" y="-376" font-family="Inter, Arial, sans-serif" font-size="14.00" fill="#ffffff">Server Actions</text>
<text text-anchor="middle" x="281" y="-359.2" font-family="Inter, Arial, sans-serif" font-size="14.00" fill="#ffffff">(lib/actions/*)</text>
</g>
<!-- create_document&#45;&gt;server_actions -->
<g id="edge23" class="edge">
<title>create_document-&gt;server_actions</title>
<path fill="none" stroke="#b4c6ee" stroke-width="1.5" d="M872.7,-1288.6C751.84,-1288.6 526,-1288.6 526,-1288.6 526,-1288.6 526,-382.2 526,-382.2 526,-382.2 345.44,-382.2 345.44,-382.2"/>
<polygon fill="#b4c6ee" stroke="#b4c6ee" stroke-width="1.5" points="345.44,-378 333.44,-382.2 345.44,-386.4 345.44,-378"/>
<text text-anchor="middle" x="1915.87" y="-844.6" font-family="Inter, Arial, sans-serif" font-size="14.00" fill="#b4c6ee">Update Document State</text>
</g>
<!-- collaborative_room -->
<g id="node8" class="node">
<title>collaborative_room</title>
<path fill="#0f1c34" stroke="#b4c6ee" stroke-width="1.5" d="M1037.63,-995.4C1037.63,-995.4 866.37,-995.4 866.37,-995.4 860.37,-995.4 854.37,-989.4 854.37,-983.4 854.37,-983.4 854.37,-965.8 854.37,-965.8 854.37,-959.8 860.37,-953.8 866.37,-953.8 866.37,-953.8 1037.63,-953.8 1037.63,-953.8 1043.63,-953.8 1049.63,-959.8 1049.63,-965.8 1049.63,-965.8 1049.63,-983.4 1049.63,-983.4 1049.63,-989.4 1043.63,-995.4 1037.63,-995.4"/>
<text text-anchor="middle" x="952" y="-978.8" font-family="Inter, Arial, sans-serif" font-size="14.00" fill="#ffffff">CollaborativeRoom Component</text>
<text text-anchor="middle" x="952" y="-962" font-family="Inter, Arial, sans-serif" font-size="14.00" fill="#ffffff">(CollaborativeRoom.tsx)</text>
</g>
<!-- open_document&#45;&gt;collaborative_room -->
<g id="edge10" class="edge">
<title>open_document-&gt;collaborative_room</title>
<path fill="none" stroke="#b4c6ee" stroke-width="1.5" d="M952,-1128.55C952,-1128.55 952,-1010.13 952,-1010.13"/>
<polygon fill="#b4c6ee" stroke="#b4c6ee" stroke-width="1.5" points="956.2,-1010.13 952,-998.13 947.8,-1010.13 956.2,-1010.13"/>
</g>
<!-- liveblocks_provider -->
<g id="node9" class="node">
<title>liveblocks_provider</title>
<path fill="#0f1c34" stroke="#b4c6ee" stroke-width="1.5" d="M1001.07,-866.8C1001.07,-866.8 860.93,-866.8 860.93,-866.8 854.93,-866.8 848.93,-860.8 848.93,-854.8 848.93,-854.8 848.93,-842.8 848.93,-842.8 848.93,-836.8 854.93,-830.8 860.93,-830.8 860.93,-830.8 1001.07,-830.8 1001.07,-830.8 1007.07,-830.8 1013.07,-836.8 1013.07,-842.8 1013.07,-842.8 1013.07,-854.8 1013.07,-854.8 1013.07,-860.8 1007.07,-866.8 1001.07,-866.8"/>
<text text-anchor="middle" x="931" y="-844.6" font-family="Inter, Arial, sans-serif" font-size="14.00" fill="#ffffff">Liveblocks RoomProvider</text>
</g>
<!-- collaborative_room&#45;&gt;liveblocks_provider -->
<g id="edge11" class="edge">
<title>collaborative_room-&gt;liveblocks_provider</title>
<path fill="none" stroke="#b4c6ee" stroke-width="1.5" d="M933.72,-953.54C933.72,-953.54 933.72,-881.33 933.72,-881.33"/>
<polygon fill="#b4c6ee" stroke="#b4c6ee" stroke-width="1.5" points="937.92,-881.33 933.72,-869.33 929.52,-881.33 937.92,-881.33"/>
</g>
<!-- user_presence -->
<g id="node15" class="node">
<title>user_presence</title>
<path fill="#0f1c34" stroke="#b4c6ee" stroke-width="1.5" d="M1573.34,-537C1573.34,-537 1438.66,-537 1438.66,-537 1432.66,-537 1426.66,-531 1426.66,-525 1426.66,-525 1426.66,-507.4 1426.66,-507.4 1426.66,-501.4 1432.66,-495.4 1438.66,-495.4 1438.66,-495.4 1573.34,-495.4 1573.34,-495.4 1579.34,-495.4 1585.34,-501.4 1585.34,-507.4 1585.34,-507.4 1585.34,-525 1585.34,-525 1585.34,-531 1579.34,-537 1573.34,-537"/>
<text text-anchor="middle" x="1506" y="-520.4" font-family="Inter, Arial, sans-serif" font-size="14.00" fill="#ffffff">Active Collaborators</text>
<text text-anchor="middle" x="1506" y="-503.6" font-family="Inter, Arial, sans-serif" font-size="14.00" fill="#ffffff">(ActiveCollaborators.tsx)</text>
</g>
<!-- collaborative_room&#45;&gt;user_presence -->
<g id="edge17" class="edge">
<title>collaborative_room-&gt;user_presence</title>
<path fill="none" stroke="#b4c6ee" stroke-width="1.5" d="M1050.09,-967.67C1209.21,-967.67 1506,-967.67 1506,-967.67 1506,-967.67 1506,-551.64 1506,-551.64"/>
<polygon fill="#b4c6ee" stroke="#b4c6ee" stroke-width="1.5" points="1510.2,-551.64 1506,-539.64 1501.8,-551.64 1510.2,-551.64"/>
</g>
<!-- notifications -->
<g id="node16" class="node">
<title>notifications</title>
<path fill="#0f1c34" stroke="#b4c6ee" stroke-width="1.5" d="M1749.13,-537C1749.13,-537 1654.87,-537 1654.87,-537 1648.87,-537 1642.87,-531 1642.87,-525 1642.87,-525 1642.87,-507.4 1642.87,-507.4 1642.87,-501.4 1648.87,-495.4 1654.87,-495.4 1654.87,-495.4 1749.13,-495.4 1749.13,-495.4 1755.13,-495.4 1761.13,-501.4 1761.13,-507.4 1761.13,-507.4 1761.13,-525 1761.13,-525 1761.13,-531 1755.13,-537 1749.13,-537"/>
<text text-anchor="middle" x="1702" y="-520.4" font-family="Inter, Arial, sans-serif" font-size="14.00" fill="#ffffff">Notifications</text>
<text text-anchor="middle" x="1702" y="-503.6" font-family="Inter, Arial, sans-serif" font-size="14.00" fill="#ffffff">(Notifications.tsx)</text>
</g>
<!-- collaborative_room&#45;&gt;notifications -->
<g id="edge18" class="edge">
<title>collaborative_room-&gt;notifications</title>
<path fill="none" stroke="#b4c6ee" stroke-width="1.5" d="M1050.05,-981.53C1253.35,-981.53 1702,-981.53 1702,-981.53 1702,-981.53 1702,-551.67 1702,-551.67"/>
<polygon fill="#b4c6ee" stroke="#b4c6ee" stroke-width="1.5" points="1706.2,-551.67 1702,-539.67 1697.8,-551.67 1706.2,-551.67"/>
</g>
<!-- collaborative_room&#45;&gt;sentry_monitoring -->
<g id="edge27" class="edge">
<title>collaborative_room-&gt;sentry_monitoring</title>
<path fill="none" stroke="#dd4f56" stroke-dasharray="5,2" d="M854.08,-974.6C648.57,-974.6 191.09,-974.6 191.09,-974.6 191.09,-974.6 191.09,-277.81 191.09,-277.81"/>
<polygon fill="#dd4f56" stroke="#dd4f56" points="195.29,-277.81 191.09,-265.81 186.89,-277.81 195.29,-277.81"/>
</g>
<!-- editor_component -->
<g id="node10" class="node">
<title>editor_component</title>
<path fill="#0f1c34" stroke="#b4c6ee" stroke-width="1.5" d="M943.23,-728C943.23,-728 870.77,-728 870.77,-728 864.77,-728 858.77,-722 858.77,-716 858.77,-716 858.77,-698.4 858.77,-698.4 858.77,-692.4 864.77,-686.4 870.77,-686.4 870.77,-686.4 943.23,-686.4 943.23,-686.4 949.23,-686.4 955.23,-692.4 955.23,-698.4 955.23,-698.4 955.23,-716 955.23,-716 955.23,-722 949.23,-728 943.23,-728"/>
<text text-anchor="middle" x="907" y="-711.4" font-family="Inter, Arial, sans-serif" font-size="14.00" fill="#ffffff">Lexical Editor</text>
<text text-anchor="middle" x="907" y="-694.6" font-family="Inter, Arial, sans-serif" font-size="14.00" fill="#ffffff">(Editor.tsx)</text>
</g>
<!-- liveblocks_provider&#45;&gt;editor_component -->
<g id="edge12" class="edge">
<title>liveblocks_provider-&gt;editor_component</title>
<path fill="none" stroke="#b4c6ee" stroke-width="1.5" d="M907,-830.58C907,-830.58 907,-742.38 907,-742.38"/>
<polygon fill="#b4c6ee" stroke="#b4c6ee" stroke-width="1.5" points="911.2,-742.38 907,-730.38 902.8,-742.38 911.2,-742.38"/>
<text text-anchor="middle" x="980.87" y="-775.2" font-family="Inter, Arial, sans-serif" font-size="14.00" fill="#b4c6ee">Provides real-time context</text>
</g>
<!-- liveblocks_auth_api -->
<g id="node17" class="node">
<title>liveblocks_auth_api</title>
<path fill="#0f1c34" stroke="#b4c6ee" stroke-width="1.5" d="M140.26,-537C140.26,-537 27.74,-537 27.74,-537 21.74,-537 15.74,-531 15.74,-525 15.74,-525 15.74,-507.4 15.74,-507.4 15.74,-501.4 21.74,-495.4 27.74,-495.4 27.74,-495.4 140.26,-495.4 140.26,-495.4 146.26,-495.4 152.26,-501.4 152.26,-507.4 152.26,-507.4 152.26,-525 152.26,-525 152.26,-531 146.26,-537 140.26,-537"/>
<text text-anchor="middle" x="84" y="-520.4" font-family="Inter, Arial, sans-serif" font-size="14.00" fill="#ffffff">Liveblocks Auth API</text>
<text text-anchor="middle" x="84" y="-503.6" font-family="Inter, Arial, sans-serif" font-size="14.00" fill="#ffffff">(/api/liveblocks-auth)</text>
</g>
<!-- liveblocks_provider&#45;&gt;liveblocks_auth_api -->
<g id="edge19" class="edge">
<title>liveblocks_provider-&gt;liveblocks_auth_api</title>
<path fill="none" stroke="#b4c6ee" stroke-width="1.5" d="M848.63,-848.8C635.78,-848.8 84,-848.8 84,-848.8 84,-848.8 84,-551.53 84,-551.53"/>
<polygon fill="#b4c6ee" stroke="#b4c6ee" stroke-width="1.5" points="88.2,-551.53 84,-539.53 79.8,-551.53 88.2,-551.53"/>
<text text-anchor="middle" x="298.9" y="-703" font-family="Inter, Arial, sans-serif" font-size="14.00" fill="#b4c6ee">Authentication Request</text>
</g>
<!-- toolbar -->
<g id="node11" class="node">
<title>toolbar</title>
<path fill="#0f1c34" stroke="#b4c6ee" stroke-width="1.5" d="M1165.21,-537C1165.21,-537 1048.79,-537 1048.79,-537 1042.79,-537 1036.79,-531 1036.79,-525 1036.79,-525 1036.79,-507.4 1036.79,-507.4 1036.79,-501.4 1042.79,-495.4 1048.79,-495.4 1048.79,-495.4 1165.21,-495.4 1165.21,-495.4 1171.21,-495.4 1177.21,-501.4 1177.21,-507.4 1177.21,-507.4 1177.21,-525 1177.21,-525 1177.21,-531 1171.21,-537 1165.21,-537"/>
<text text-anchor="middle" x="1107" y="-520.4" font-family="Inter, Arial, sans-serif" font-size="14.00" fill="#ffffff">Toolbar &amp; Formatting</text>
<text text-anchor="middle" x="1107" y="-503.6" font-family="Inter, Arial, sans-serif" font-size="14.00" fill="#ffffff">(ToolbarPlugin.tsx)</text>
</g>
<!-- editor_component&#45;&gt;toolbar -->
<g id="edge13" class="edge">
<title>editor_component-&gt;toolbar</title>
<path fill="none" stroke="#b4c6ee" stroke-width="1.5" d="M955.41,-700.27C994.56,-700.27 1043.21,-700.27 1043.21,-700.27 1043.21,-700.27 1043.21,-551.59 1043.21,-551.59"/>
<polygon fill="#b4c6ee" stroke="#b4c6ee" stroke-width="1.5" points="1047.41,-551.59 1043.21,-539.59 1039.01,-551.59 1047.41,-551.59"/>
</g>
<!-- comments -->
<g id="node12" class="node">
<title>comments</title>
<path fill="#0f1c34" stroke="#b4c6ee" stroke-width="1.5" d="M1356.92,-537C1356.92,-537 1247.08,-537 1247.08,-537 1241.08,-537 1235.08,-531 1235.08,-525 1235.08,-525 1235.08,-507.4 1235.08,-507.4 1235.08,-501.4 1241.08,-495.4 1247.08,-495.4 1247.08,-495.4 1356.92,-495.4 1356.92,-495.4 1362.92,-495.4 1368.92,-501.4 1368.92,-507.4 1368.92,-507.4 1368.92,-525 1368.92,-525 1368.92,-531 1362.92,-537 1356.92,-537"/>
<text text-anchor="middle" x="1302" y="-520.4" font-family="Inter, Arial, sans-serif" font-size="14.00" fill="#ffffff">Commenting System</text>
<text text-anchor="middle" x="1302" y="-503.6" font-family="Inter, Arial, sans-serif" font-size="14.00" fill="#ffffff">(Comments.tsx)</text>
</g>
<!-- editor_component&#45;&gt;comments -->
<g id="edge14" class="edge">
<title>editor_component-&gt;comments</title>
<path fill="none" stroke="#b4c6ee" stroke-width="1.5" d="M955.43,-714.13C1060.91,-714.13 1302,-714.13 1302,-714.13 1302,-714.13 1302,-551.65 1302,-551.65"/>
<polygon fill="#b4c6ee" stroke="#b4c6ee" stroke-width="1.5" points="1306.2,-551.65 1302,-539.65 1297.8,-551.65 1306.2,-551.65"/>
</g>
<!-- sharing -->
<g id="node13" class="node">
<title>sharing</title>
<path fill="#0f1c34" stroke="#b4c6ee" stroke-width="1.5" d="M764.56,-537C764.56,-537 643.44,-537 643.44,-537 637.44,-537 631.44,-531 631.44,-525 631.44,-525 631.44,-507.4 631.44,-507.4 631.44,-501.4 637.44,-495.4 643.44,-495.4 643.44,-495.4 764.56,-495.4 764.56,-495.4 770.56,-495.4 776.56,-501.4 776.56,-507.4 776.56,-507.4 776.56,-525 776.56,-525 776.56,-531 770.56,-537 764.56,-537"/>
<text text-anchor="middle" x="704" y="-520.4" font-family="Inter, Arial, sans-serif" font-size="14.00" fill="#ffffff">Sharing &amp; Permissions</text>
<text text-anchor="middle" x="704" y="-503.6" font-family="Inter, Arial, sans-serif" font-size="14.00" fill="#ffffff">(ShareModal.tsx)</text>
</g>
<!-- editor_component&#45;&gt;sharing -->
<g id="edge15" class="edge">
<title>editor_component-&gt;sharing</title>
<path fill="none" stroke="#b4c6ee" stroke-width="1.5" d="M858.29,-700.27C811.85,-700.27 748.95,-700.27 748.95,-700.27 748.95,-700.27 748.95,-551.59 748.95,-551.59"/>
<polygon fill="#b4c6ee" stroke="#b4c6ee" stroke-width="1.5" points="753.15,-551.59 748.95,-539.59 744.75,-551.59 753.15,-551.59"/>
</g>
<!-- ai_feature -->
<g id="node14" class="node">
<title>ai_feature</title>
<path fill="#0f1c34" stroke="#b4c6ee" stroke-width="1.5" d="M967.15,-537C967.15,-537 846.85,-537 846.85,-537 840.85,-537 834.85,-531 834.85,-525 834.85,-525 834.85,-507.4 834.85,-507.4 834.85,-501.4 840.85,-495.4 846.85,-495.4 846.85,-495.4 967.15,-495.4 967.15,-495.4 973.15,-495.4 979.15,-501.4 979.15,-507.4 979.15,-507.4 979.15,-525 979.15,-525 979.15,-531 973.15,-537 967.15,-537"/>
<text text-anchor="middle" x="907" y="-520.4" font-family="Inter, Arial, sans-serif" font-size="14.00" fill="#ffffff">AI Content Generation</text>
<text text-anchor="middle" x="907" y="-503.6" font-family="Inter, Arial, sans-serif" font-size="14.00" fill="#ffffff">(AIModal.tsx)</text>
</g>
<!-- editor_component&#45;&gt;ai_feature -->
<g id="edge16" class="edge">
<title>editor_component-&gt;ai_feature</title>
<path fill="none" stroke="#b4c6ee" stroke-width="1.5" d="M907,-686.03C907,-686.03 907,-551.74 907,-551.74"/>
<polygon fill="#b4c6ee" stroke="#b4c6ee" stroke-width="1.5" points="911.2,-551.74 907,-539.74 902.8,-551.74 911.2,-551.74"/>
</g>
<!-- sharing&#45;&gt;server_actions -->
<g id="edge24" class="edge">
<title>sharing-&gt;server_actions</title>
<path fill="none" stroke="#b4c6ee" stroke-width="1.5" d="M704,-495C704,-452.6 704,-361.4 704,-361.4 704,-361.4 345.46,-361.4 345.46,-361.4"/>
<polygon fill="#b4c6ee" stroke="#b4c6ee" stroke-width="1.5" points="345.46,-357.2 333.46,-361.4 345.46,-365.6 345.46,-357.2"/>
<text text-anchor="middle" x="688.87" y="-439.8" font-family="Inter, Arial, sans-serif" font-size="14.00" fill="#b4c6ee">Update Document State</text>
</g>
<!-- gemini_api_route -->
<g id="node18" class="node">
<title>gemini_api_route</title>
<path fill="#0f1c34" stroke="#b4c6ee" stroke-width="1.5" d="M319.5,-537C319.5,-537 222.5,-537 222.5,-537 216.5,-537 210.5,-531 210.5,-525 210.5,-525 210.5,-507.4 210.5,-507.4 210.5,-501.4 216.5,-495.4 222.5,-495.4 222.5,-495.4 319.5,-495.4 319.5,-495.4 325.5,-495.4 331.5,-501.4 331.5,-507.4 331.5,-507.4 331.5,-525 331.5,-525 331.5,-531 325.5,-537 319.5,-537"/>
<text text-anchor="middle" x="271" y="-520.4" font-family="Inter, Arial, sans-serif" font-size="14.00" fill="#ffffff">Gemini API Route</text>
<text text-anchor="middle" x="271" y="-503.6" font-family="Inter, Arial, sans-serif" font-size="14.00" fill="#ffffff">(/api/gemini)</text>
</g>
<!-- ai_feature&#45;&gt;gemini_api_route -->
<g id="edge20" class="edge">
<title>ai_feature-&gt;gemini_api_route</title>
<path fill="none" stroke="#b4c6ee" stroke-width="1.5" d="M841.89,-537.39C841.89,-565.53 841.89,-611.7 841.89,-611.7 841.89,-611.7 271,-611.7 271,-611.7 271,-611.7 271,-551.66 271,-551.66"/>
<polygon fill="#b4c6ee" stroke="#b4c6ee" stroke-width="1.5" points="275.2,-551.66 271,-539.66 266.8,-551.66 275.2,-551.66"/>
<text text-anchor="middle" x="575" y="-630.8" font-family="Inter, Arial, sans-serif" font-size="14.00" fill="#b4c6ee">Request AI Content</text>
</g>
<!-- liveblocks_service -->
<g id="node22" class="node">
<title>liveblocks_service</title>
<path fill="#0c0d0d" stroke="#b4c6ee" stroke-width="1.5" d="M131.1,-85.53C131.1,-87.33 113.58,-88.8 92,-88.8 70.42,-88.8 52.9,-87.33 52.9,-85.53 52.9,-85.53 52.9,-56.07 52.9,-56.07 52.9,-54.27 70.42,-52.8 92,-52.8 113.58,-52.8 131.1,-54.27 131.1,-56.07 131.1,-56.07 131.1,-85.53 131.1,-85.53"/>
<path fill="none" stroke="#b4c6ee" stroke-width="1.5" d="M131.1,-85.53C131.1,-83.72 113.58,-82.25 92,-82.25 70.42,-82.25 52.9,-83.72 52.9,-85.53"/>
<text text-anchor="middle" x="92" y="-66.6" font-family="Inter, Arial, sans-serif" font-size="14.00" fill="#ffffff">Liveblocks</text>
</g>
<!-- liveblocks_auth_api&#45;&gt;liveblocks_service -->
<g id="edge30" class="edge">
<title>liveblocks_auth_api-&gt;liveblocks_service</title>
<path fill="none" stroke="#b4c6ee" stroke-width="1.5" d="M92,-495.02C92,-495.02 92,-103.37 92,-103.37"/>
<polygon fill="#b4c6ee" stroke="#b4c6ee" stroke-width="1.5" points="96.2,-103.37 92,-91.37 87.8,-103.37 96.2,-103.37"/>
</g>
<!-- gemini_api_route&#45;&gt;server_actions -->
<g id="edge21" class="edge">
<title>gemini_api_route-&gt;server_actions</title>
<path fill="none" stroke="#b4c6ee" stroke-width="1.5" d="M281,-495.2C281,-495.2 281,-407.09 281,-407.09"/>
<polygon fill="#b4c6ee" stroke="#b4c6ee" stroke-width="1.5" points="285.2,-407.09 281,-395.09 276.8,-407.09 285.2,-407.09"/>
<text text-anchor="middle" x="271.91" y="-439.8" font-family="Inter, Arial, sans-serif" font-size="14.00" fill="#b4c6ee">Calls getAIResponse</text>
</g>
<!-- server_actions&#45;&gt;editor_component -->
<g id="edge22" class="edge">
<title>server_actions-&gt;editor_component</title>
<path fill="none" stroke="#b4c6ee" stroke-width="1.5" d="M331.15,-371.8C406.32,-371.8 539.5,-371.8 539.5,-371.8 539.5,-371.8 539.5,-714.13 539.5,-714.13 539.5,-714.13 844.31,-714.13 844.31,-714.13"/>
<polygon fill="#b4c6ee" stroke="#b4c6ee" stroke-width="1.5" points="844.31,-718.33 856.31,-714.13 844.31,-709.93 844.31,-718.33"/>
<text text-anchor="middle" x="509.98" y="-512" font-family="Inter, Arial, sans-serif" font-size="14.00" fill="#b4c6ee">Returns generated text</text>
</g>
<!-- server_actions&#45;&gt;sentry_monitoring -->
<g id="edge28" class="edge">
<title>server_actions-&gt;sentry_monitoring</title>
<path fill="none" stroke="#dd4f56" stroke-dasharray="5,2" d="M258.82,-350.56C258.82,-350.56 258.82,-277.98 258.82,-277.98"/>
<polygon fill="#dd4f56" stroke="#dd4f56" points="263.02,-277.98 258.82,-265.98 254.62,-277.98 263.02,-277.98"/>
</g>
<!-- gemini_service -->
<g id="node23" class="node">
<title>gemini_service</title>
<path fill="#4285f4" stroke="#b4c6ee" stroke-width="1.5" d="M441.2,-85.53C441.2,-87.33 409.73,-88.8 371,-88.8 332.27,-88.8 300.8,-87.33 300.8,-85.53 300.8,-85.53 300.8,-56.07 300.8,-56.07 300.8,-54.27 332.27,-52.8 371,-52.8 409.73,-52.8 441.2,-54.27 441.2,-56.07 441.2,-56.07 441.2,-85.53 441.2,-85.53"/>
<path fill="none" stroke="#b4c6ee" stroke-width="1.5" d="M441.2,-85.53C441.2,-83.72 409.73,-82.25 371,-82.25 332.27,-82.25 300.8,-83.72 300.8,-85.53"/>
<text text-anchor="middle" x="371" y="-66.6" font-family="Inter, Arial, sans-serif" font-size="14.00" fill="#ffffff">Google Generative AI</text>
</g>
<!-- server_actions&#45;&gt;gemini_service -->
<g id="edge31" class="edge">
<title>server_actions-&gt;gemini_service</title>
<path fill="none" stroke="#b4c6ee" stroke-width="1.5" d="M315.8,-350.63C315.8,-350.63 315.8,-102.74 315.8,-102.74"/>
<polygon fill="#b4c6ee" stroke="#b4c6ee" stroke-width="1.5" points="320,-102.74 315.8,-90.74 311.6,-102.74 320,-102.74"/>
</g>
<!-- sentry_service -->
<g id="node24" class="node">
<title>sentry_service</title>
<path fill="#362d59" stroke="#b4c6ee" stroke-width="1.5" d="M243,-85.53C243,-87.33 230.9,-88.8 216,-88.8 201.1,-88.8 189,-87.33 189,-85.53 189,-85.53 189,-56.07 189,-56.07 189,-54.27 201.1,-52.8 216,-52.8 230.9,-52.8 243,-54.27 243,-56.07 243,-56.07 243,-85.53 243,-85.53"/>
<path fill="none" stroke="#b4c6ee" stroke-width="1.5" d="M243,-85.53C243,-83.72 230.9,-82.25 216,-82.25 201.1,-82.25 189,-83.72 189,-85.53"/>
<text text-anchor="middle" x="216" y="-66.6" font-family="Inter, Arial, sans-serif" font-size="14.00" fill="#ffffff">Sentry</text>
</g>
<!-- sentry_monitoring&#45;&gt;sentry_service -->
<g id="edge32" class="edge">
<title>sentry_monitoring-&gt;sentry_service</title>
<path fill="none" stroke="#b4c6ee" stroke-width="1.5" d="M216,-222.06C216,-222.06 216,-103.49 216,-103.49"/>
<polygon fill="#b4c6ee" stroke="#b4c6ee" stroke-width="1.5" points="220.2,-103.49 216,-91.49 211.8,-103.49 220.2,-103.49"/>
</g>
</g>
</svg>